<svg xmlns="http://www.w3.org/2000/svg" viewBox="0 0 96 96" fill="none">
  <defs>
    <linearGradient id="axiom-bg" x1="14" y1="10" x2="82" y2="88" gradientUnits="userSpaceOnUse">
      <stop offset="0" stop-color="#091A37" />
      <stop offset="0.52" stop-color="#0071E3" />
      <stop offset="1" stop-color="#7CC8FF" />
    </linearGradient>
    <linearGradient id="axiom-highlight" x1="24" y1="20" x2="71" y2="62" gradientUnits="userSpaceOnUse">
      <stop offset="0" stop-color="#FFFFFF" stop-opacity="0.98" />
      <stop offset="1" stop-color="#DDEFFF" stop-opacity="0.92" />
    </linearGradient>
    <radialGradient id="axiom-glow" cx="0" cy="0" r="1" gradientUnits="userSpaceOnUse" gradientTransform="translate(70 19) rotate(135) scale(22 18)">
      <stop stop-color="#FFFFFF" stop-opacity="0.82" />
      <stop offset="1" stop-color="#FFFFFF" stop-opacity="0" />
    </radialGradient>
  </defs>
  <rect x="6" y="6" width="84" height="84" rx="24" fill="url(#axiom-bg)" />
  <rect x="7" y="7" width="82" height="82" rx="23" stroke="#FFFFFF" stroke-opacity="0.18" />
  <path d="M16 20C29 12 50 10 73 14C78 15 82 17 86 19V37C78 31 68 27 54 25C39 23 26 26 16 34V20Z" fill="url(#axiom-glow)" />
  <path d="M23 71L43.8 24.8C45.4 21.2 50.6 21.2 52.2 24.8L73 71" stroke="url(#axiom-highlight)" stroke-width="8" stroke-linecap="round" stroke-linejoin="round" />
  <path d="M32.5 52H63.5" stroke="url(#axiom-highlight)" stroke-width="7" stroke-linecap="round" />
  <path d="M25 71V54" stroke="#F8FBFF" stroke-opacity="0.98" stroke-width="8" stroke-linecap="round" />
  <path d="M35 71V47" stroke="#F8FBFF" stroke-opacity="0.98" stroke-width="8" stroke-linecap="round" />
  <path d="M45 71V40" stroke="#F8FBFF" stroke-opacity="0.98" stroke-width="8" stroke-linecap="round" />
</svg>
