<svg xmlns="http://www.w3.org/2000/svg" viewBox="0 0 120 120" fill="none">
  <defs>
    <linearGradient id="ring-main" x1="22" y1="18" x2="95" y2="98" gradientUnits="userSpaceOnUse">
      <stop offset="0" stop-color="#20CFFF" />
      <stop offset="0.55" stop-color="#0D8CF0" />
      <stop offset="1" stop-color="#1844B8" />
    </linearGradient>
    <linearGradient id="ring-accent" x1="78" y1="26" x2="95" y2="50" gradientUnits="userSpaceOnUse">
      <stop offset="0" stop-color="#43DBFF" />
      <stop offset="1" stop-color="#1699F6" />
    </linearGradient>
    <linearGradient id="bars" x1="41" y1="50" x2="74" y2="92" gradientUnits="userSpaceOnUse">
      <stop offset="0" stop-color="#2E7AE8" />
      <stop offset="1" stop-color="#1649B9" />
    </linearGradient>
    <filter id="soft-shadow" x="5" y="6" width="110" height="110" filterUnits="userSpaceOnUse" color-interpolation-filters="sRGB">
      <feDropShadow dx="0" dy="8" stdDeviation="7" flood-color="#0E4AA8" flood-opacity="0.16" />
    </filter>
  </defs>

  <g filter="url(#soft-shadow)">
    <circle cx="60" cy="60" r="43" fill="#FFFFFF" />
  </g>

  <circle cx="60" cy="60" r="36" stroke="#E6F2FF" stroke-width="2.5" />
  <circle
    cx="60"
    cy="60"
    r="38"
    stroke="url(#ring-main)"
    stroke-width="10"
    stroke-linecap="round"
    stroke-dasharray="202 37"
    transform="rotate(-38 60 60)"
  />
  <path
    d="M79.5 26.5A38 38 0 0 1 95 48"
    stroke="url(#ring-accent)"
    stroke-width="8"
    stroke-linecap="round"
  />

  <path d="M39 84V63C39 60.8 40.8 59 43 59H50V84H39Z" fill="url(#bars)" />
  <path d="M53 84V50C53 47.8 54.8 46 57 46H64V84H53Z" fill="url(#bars)" />
  <path d="M67 84V37C67 34.8 68.8 33 71 33H78V84H67Z" fill="url(#bars)" />
</svg>
